<?xml version="1.0" encoding="UTF-8"?>
<svg xmlns="http://www.w3.org/2000/svg" xmlns:xlink="http://www.w3.org/1999/xlink" width="32px" height="32px" viewBox="0 0 32 32" version="1.1">
<g id="surface1">
<path fill="#000000" d="M 24.667969 16 C 24.667969 17.105469 23.769531 18 22.667969 18 C 21.5625 18 20.667969 17.105469 20.667969 16 C 20.667969 14.894531 21.5625 14 22.667969 14 C 23.769531 14 24.667969 14.894531 24.667969 16 Z M 24.667969 16 "/>
<path fill="#000000" d="M 18 16 C 18 17.105469 17.105469 18 16 18 C 14.894531 18 14 17.105469 14 16 C 14 14.894531 14.894531 14 16 14 C 17.105469 14 18 14.894531 18 16 Z M 18 16 "/>
<path fill="#000000" d="M 11.332031 16 C 11.332031 17.105469 10.4375 18 9.332031 18 C 8.230469 18 7.332031 17.105469 7.332031 16 C 7.332031 14.894531 8.230469 14 9.332031 14 C 10.4375 14 11.332031 14.894531 11.332031 16 Z M 11.332031 16 "/>
<path fill="#000000" d="M 16 30.332031 C 8.097656 30.332031 1.667969 23.902344 1.667969 16 C 1.667969 8.097656 8.097656 1.667969 16 1.667969 C 23.902344 1.667969 30.332031 8.097656 30.332031 16 C 30.332031 23.902344 23.902344 30.332031 16 30.332031 Z M 16 3.667969 C 9.199219 3.667969 3.667969 9.199219 3.667969 16 C 3.667969 22.800781 9.199219 28.332031 16 28.332031 C 22.800781 28.332031 28.332031 22.800781 28.332031 16 C 28.332031 9.199219 22.800781 3.667969 16 3.667969 Z M 16 3.667969 "/>
</g>
</svg>
